<svg aria-hidden="true" style="position: absolute; width: 0; height: 0; overflow: hidden;" version="1.1" xmlns="http://www.w3.org/2000/svg" xmlns:xlink="http://www.w3.org/1999/xlink">
<defs>
<symbol id="arrowDown" viewBox="0 0 48 32">
<path stroke-linejoin="miter" stroke-linecap="butt" stroke-miterlimit="4" stroke-width="8" d="M4 6l20 20 20-20"></path>
</symbol>
<symbol id="arrow-left" viewBox="0 0 32 32">
<path stroke-linejoin="round" stroke-linecap="round" stroke-miterlimit="4" stroke-width="2" d="M26.667 16h-21.333"></path>
<path stroke-linejoin="round" stroke-linecap="round" stroke-miterlimit="4" stroke-width="2" d="M13.333 24l-8-8 8-8"></path>
</symbol>
<symbol id="arrow-right" viewBox="0 0 32 32">
<path stroke-linejoin="round" stroke-linecap="round" stroke-miterlimit="4" stroke-width="2" d="M5.333 16h21.333"></path>
<path stroke-linejoin="round" stroke-linecap="round" stroke-miterlimit="4" stroke-width="2" d="M18.667 8l8 8-8 8"></path>
</symbol>
<symbol id="arrow-up" viewBox="0 0 32 32">
<path stroke-linejoin="miter" stroke-linecap="butt" stroke-miterlimit="4" stroke-width="0.7619" d="M16 31.619c8.626 0 15.619-6.993 15.619-15.619s-6.993-15.619-15.619-15.619c-8.626 0-15.619 6.993-15.619 15.619s6.993 15.619 15.619 15.619z"></path>
<path stroke-linejoin="miter" stroke-linecap="butt" stroke-miterlimit="4" stroke-width="1.5238" d="M19.81 17.905l-3.81-3.81-3.81 3.81"></path>
</symbol>
<symbol id="favicon" viewBox="0 0 32 32">
<path fill="#1c1d20" style="fill: var(--color1, #1c1d20)" d="M6.667 0h18.667c3.682 0 6.667 2.985 6.667 6.667v18.667c0 3.682-2.985 6.667-6.667 6.667h-18.667c-3.682 0-6.667-2.985-6.667-6.667v-18.667c0-3.682 2.985-6.667 6.667-6.667z"></path>
<path fill="#fafafa" style="fill: var(--color2, #fafafa)" d="M24.48 15.368l0.083-1.748-1.527 0.951-0.474-0.786 1.622-0.797-1.622-0.797 0.474-0.797 1.527 0.951-0.083-1.748h0.935l-0.083 1.748 1.528-0.951 0.474 0.797-1.622 0.797 1.622 0.797-0.474 0.786-1.528-0.951 0.083 1.748h-0.935z"></path>
<path fill="#fafafa" style="fill: var(--color2, #fafafa)" d="M21.034 12.535v1.004h-3.841v-1.004h3.841zM18.24 18.947v-7.158c0-0.398 0.093-0.728 0.28-0.992 0.191-0.268 0.438-0.467 0.743-0.597 0.308-0.134 0.639-0.201 0.992-0.201 0.272 0 0.503 0.021 0.694 0.063s0.331 0.078 0.42 0.109l-0.316 1.009c-0.061-0.019-0.14-0.040-0.237-0.063-0.093-0.023-0.211-0.034-0.353-0.034-0.321 0-0.552 0.076-0.694 0.229-0.142 0.149-0.213 0.367-0.213 0.654v6.98h-1.315z"></path>
<path fill="#fafafa" style="fill: var(--color2, #fafafa)" d="M17.455 12.535v1.004h-3.841v-1.004h3.841zM14.661 18.947v-7.158c0-0.398 0.093-0.728 0.28-0.992 0.191-0.268 0.438-0.467 0.743-0.597 0.308-0.134 0.639-0.201 0.992-0.201 0.272 0 0.503 0.021 0.694 0.063s0.331 0.078 0.42 0.109l-0.317 1.009c-0.061-0.019-0.14-0.040-0.237-0.063-0.093-0.023-0.211-0.034-0.353-0.034-0.321 0-0.552 0.076-0.694 0.229-0.142 0.149-0.213 0.367-0.213 0.654v6.98h-1.315z"></path>
<path fill="#fafafa" style="fill: var(--color2, #fafafa)" d="M10.791 18.947c-0.644 0-1.202-0.134-1.674-0.403s-0.835-0.648-1.090-1.136c-0.252-0.492-0.377-1.066-0.377-1.721 0-0.651 0.124-1.225 0.371-1.721 0.252-0.496 0.603-0.882 1.055-1.159 0.456-0.28 0.99-0.42 1.603-0.42 0.373 0 0.735 0.059 1.085 0.176s0.664 0.303 0.943 0.557c0.279 0.254 0.499 0.583 0.66 0.988 0.165 0.405 0.248 0.894 0.248 1.466v0.443h-5.24v-0.926h4.58l-0.595 0.307c0-0.39-0.063-0.735-0.189-1.034s-0.314-0.532-0.566-0.699c-0.248-0.17-0.556-0.256-0.925-0.256s-0.686 0.085-0.949 0.256c-0.259 0.17-0.458 0.396-0.595 0.676s-0.206 0.587-0.206 0.92v0.631c0 0.436 0.079 0.805 0.236 1.108s0.375 0.534 0.654 0.693c0.283 0.159 0.611 0.239 0.984 0.239 0.244 0 0.464-0.034 0.66-0.102 0.2-0.068 0.373-0.17 0.519-0.307s0.255-0.305 0.33-0.506l1.214 0.222c-0.098 0.341-0.271 0.64-0.519 0.898s-0.56 0.458-0.937 0.602c-0.373 0.14-0.8 0.21-1.279 0.21z"></path>
<path fill="#fafafa" style="fill: var(--color2, #fafafa)" d="M5.686 12.483h1.21v6.862c0.004 0.43-0.071 0.793-0.224 1.089s-0.377 0.519-0.672 0.668c-0.295 0.154-0.657 0.23-1.087 0.23h-0.246v-1.077h0.196c0.291 0 0.5-0.079 0.627-0.236s0.192-0.384 0.196-0.68v-6.856zM6.285 11.492c-0.213 0-0.394-0.073-0.543-0.219s-0.224-0.321-0.224-0.524c0-0.207 0.075-0.384 0.224-0.53s0.33-0.219 0.543-0.219c0.209 0 0.388 0.073 0.538 0.219 0.153 0.146 0.23 0.323 0.23 0.53 0 0.204-0.077 0.378-0.23 0.524-0.149 0.146-0.329 0.219-0.538 0.219z"></path>
</symbol>
<symbol id="favicon-2" viewBox="0 0 32 32">
<path fill="#1c1d20" style="fill: var(--color1, #1c1d20)" d="M6.667 0h18.667c3.682 0 6.667 2.985 6.667 6.667v18.667c0 3.682-2.985 6.667-6.667 6.667h-18.667c-3.682 0-6.667-2.985-6.667-6.667v-18.667c0-3.682 2.985-6.667 6.667-6.667z"></path>
<path fill="#fafafa" style="fill: var(--color2, #fafafa)" d="M12.432 20.797c-0.551 0-1.046-0.098-1.484-0.293-0.438-0.2-0.786-0.49-1.042-0.872s-0.384-0.846-0.384-1.393v-0.189h1.452v0.189c0 0.265 0.061 0.497 0.182 0.697 0.126 0.2 0.297 0.354 0.514 0.462 0.221 0.104 0.475 0.156 0.762 0.156 0.308 0 0.571-0.065 0.788-0.195s0.382-0.321 0.495-0.573c0.113-0.256 0.169-0.569 0.169-0.937v-6.882h1.452v6.882c0 0.621-0.119 1.152-0.358 1.595-0.234 0.438-0.569 0.775-1.003 1.009-0.434 0.23-0.948 0.345-1.543 0.345zM18.533 16.422l0.091-1.999-1.68 1.087-0.521-0.898 1.784-0.911-1.784-0.911 0.521-0.911 1.68 1.087-0.091-1.999h1.029l-0.091 1.999 1.68-1.087 0.521 0.911-1.784 0.911 1.784 0.911-0.521 0.898-1.68-1.087 0.091 1.999h-1.029z"></path>
</symbol>
<symbol id="brush" viewBox="0 0 32 32">
<path stroke-linejoin="round" stroke-linecap="round" stroke-miterlimit="4" stroke-width="2.6667" d="M17.037 20l-5.037-5.037"></path>
<path stroke-linejoin="round" stroke-linecap="round" stroke-miterlimit="4" stroke-width="2.6667" d="M2.667 29.333c2.667 0 6.144 0.456 7.966-1.367s1.822-4.777 0-6.6c-1.822-1.823-4.777-1.823-6.6 0s0 5.3-1.367 7.966z"></path>
<path stroke-linejoin="round" stroke-linecap="round" stroke-miterlimit="4" stroke-width="2.6667" d="M10.667 21.333c-0.655-0.655-0.983-0.983-1.168-1.326-0.444-0.823-0.425-1.818 0.050-2.623 0.198-0.336 0.538-0.651 1.218-1.28l13.157-12.183c1.159-1.073 2.959-1.038 4.075 0.078s1.151 2.917 0.078 4.075l-12.183 13.157c-0.63 0.68-0.944 1.020-1.28 1.218-0.805 0.475-1.8 0.495-2.623 0.051-0.343-0.185-0.671-0.513-1.326-1.168z"></path>
</symbol>
<symbol id="hourglass" viewBox="0 0 32 32">
<path stroke-linejoin="round" stroke-linecap="round" stroke-miterlimit="4" stroke-width="2.6667" d="M24.217 2.667h-16.434c-0.617 0-1.117 0.5-1.117 1.117 0 3.554 1.412 6.962 3.925 9.475l1.626 1.626c0.161 0.161 0.242 0.242 0.3 0.32 0.352 0.473 0.352 1.121 0 1.594-0.058 0.077-0.139 0.158-0.3 0.32l-1.626 1.626c-2.513 2.513-3.925 5.921-3.925 9.475 0 0.617 0.5 1.117 1.117 1.117h16.434c0.617 0 1.117-0.5 1.117-1.117 0-3.554-1.412-6.962-3.925-9.475l-1.626-1.626c-0.161-0.161-0.242-0.242-0.3-0.32-0.353-0.473-0.353-1.121 0-1.594 0.058-0.077 0.139-0.158 0.3-0.32l1.626-1.626c2.513-2.513 3.925-5.921 3.925-9.475 0-0.617-0.5-1.117-1.117-1.117z"></path>
</symbol>
<symbol id="message" viewBox="0 0 32 32">
<path stroke-linejoin="round" stroke-linecap="round" stroke-miterlimit="4" stroke-width="2.6667" d="M8.126 14.972c-0.083-0.534-0.126-1.081-0.126-1.638 0-5.891 4.807-10.667 10.737-10.667s10.737 4.776 10.737 10.667c0 1.331-0.245 2.605-0.693 3.779-0.093 0.244-0.14 0.366-0.161 0.461s-0.029 0.161-0.031 0.257c-0.002 0.097 0.011 0.205 0.037 0.42l0.537 4.36c0.058 0.472 0.087 0.708 0.009 0.88-0.069 0.15-0.191 0.27-0.343 0.335-0.173 0.075-0.409 0.040-0.879-0.029l-4.247-0.623c-0.222-0.033-0.333-0.049-0.434-0.048-0.1 0.001-0.169 0.008-0.267 0.028s-0.225 0.068-0.477 0.163c-1.178 0.441-2.454 0.683-3.787 0.683-0.558 0-1.105-0.042-1.64-0.124M10.175 29.333c3.953 0 7.158-3.283 7.158-7.333s-3.205-7.333-7.158-7.333c-3.953 0-7.158 3.283-7.158 7.333 0 0.814 0.13 1.597 0.369 2.329 0.101 0.309 0.152 0.464 0.168 0.57 0.017 0.11 0.020 0.172 0.014 0.284-0.006 0.107-0.033 0.227-0.086 0.469l-0.815 3.682 3.993-0.545c0.218-0.030 0.327-0.045 0.422-0.044 0.1 0.001 0.153 0.006 0.252 0.026 0.093 0.019 0.232 0.067 0.51 0.165 0.731 0.258 1.516 0.398 2.332 0.398z"></path>
</symbol>
<symbol id="user" viewBox="0 0 32 32">
<path stroke-linejoin="round" stroke-linecap="round" stroke-miterlimit="4" stroke-width="2.6667" d="M26.667 28c0-1.861 0-2.791-0.23-3.548-0.517-1.705-1.851-3.039-3.556-3.556-0.757-0.23-1.687-0.23-3.548-0.23h-6.667c-1.861 0-2.791 0-3.548 0.23-1.705 0.517-3.038 1.851-3.556 3.556-0.23 0.757-0.23 1.687-0.23 3.548"></path>
<path stroke-linejoin="round" stroke-linecap="round" stroke-miterlimit="4" stroke-width="2.6667" d="M16 16c3.314 0 6-2.686 6-6s-2.686-6-6-6c-3.314 0-6 2.686-6 6s2.686 6 6 6z"></path>
</symbol>
<symbol id="close" viewBox="0 0 32 32">
<path stroke-linejoin="round" stroke-linecap="round" stroke-miterlimit="4" stroke-width="2.6667" d="M24 8l-16 16"></path>
<path stroke-linejoin="round" stroke-linecap="round" stroke-miterlimit="4" stroke-width="2.6667" d="M8 8l16 16"></path>
</symbol>
</defs>
</svg>
