<svg aria-hidden="true" style="position: absolute; width: 0; height: 0; overflow: hidden;" version="1.1" xmlns="http://www.w3.org/2000/svg" xmlns:xlink="http://www.w3.org/1999/xlink">
<defs>
<symbol id="arrow-down" viewBox="0 0 48 32">
<path stroke-linejoin="miter" stroke-linecap="butt" stroke-miterlimit="4" stroke-width="8" d="M44 26l-20-20-20 20"></path>
</symbol>

<symbol id="arrow-left" viewBox="0 0 32 32">
<path stroke-linejoin="round" stroke-linecap="round" stroke-miterlimit="4" stroke-width="2" d="M26.667 16h-21.333"></path>
<path stroke-linejoin="round" stroke-linecap="round" stroke-miterlimit="4" stroke-width="2" d="M13.333 24l-8-8 8-8"></path>
</symbol>
<symbol id="arrow-right" viewBox="0 0 32 32">
<path stroke-linejoin="round" stroke-linecap="round" stroke-miterlimit="4" stroke-width="2" d="M5.333 16h21.333"></path>
<path stroke-linejoin="round" stroke-linecap="round" stroke-miterlimit="4" stroke-width="2" d="M18.667 8l8 8-8 8"></path>
</symbol>
<symbol id="arrow-up" viewBox="0 0 32 32">
<path stroke-linejoin="miter" stroke-linecap="butt" stroke-miterlimit="4" stroke-width="0.7619" d="M16 31.619c8.626 0 15.619-6.993 15.619-15.619s-6.993-15.619-15.619-15.619c-8.626 0-15.619 6.993-15.619 15.619s6.993 15.619 15.619 15.619z"></path>
<path stroke-linejoin="miter" stroke-linecap="butt" stroke-miterlimit="4" stroke-width="1.5238" d="M19.81 17.905l-3.81-3.81-3.81 3.81"></path>
</symbol>
<symbol id="favicon" viewBox="0 0 32 32">
<path fill="#1c1d20" style="fill: var(--color1, #1c1d20)" d="M6.667 0h18.667c3.682 0 6.667 2.985 6.667 6.667v18.667c0 3.682-2.985 6.667-6.667 6.667h-18.667c-3.682 0-6.667-2.985-6.667-6.667v-18.667c0-3.682 2.985-6.667 6.667-6.667z"></path>
<path fill="#fafafa" style="fill: var(--color2, #fafafa)" d="M24.48 15.368l0.083-1.748-1.527 0.951-0.474-0.786 1.622-0.797-1.622-0.797 0.474-0.797 1.527 0.951-0.083-1.748h0.935l-0.083 1.748 1.528-0.951 0.474 0.797-1.622 0.797 1.622 0.797-0.474 0.786-1.528-0.951 0.083 1.748h-0.935z"></path>
<path fill="#fafafa" style="fill: var(--color2, #fafafa)" d="M21.034 12.535v1.004h-3.841v-1.004h3.841zM18.24 18.947v-7.158c0-0.398 0.093-0.728 0.28-0.992 0.191-0.268 0.438-0.467 0.743-0.597 0.308-0.134 0.639-0.201 0.992-0.201 0.272 0 0.503 0.021 0.694 0.063s0.331 0.078 0.42 0.109l-0.316 1.009c-0.061-0.019-0.14-0.040-0.237-0.063-0.093-0.023-0.211-0.034-0.353-0.034-0.321 0-0.552 0.076-0.694 0.229-0.142 0.149-0.213 0.367-0.213 0.654v6.98h-1.315z"></path>
<path fill="#fafafa" style="fill: var(--color2, #fafafa)" d="M17.455 12.535v1.004h-3.841v-1.004h3.841zM14.661 18.947v-7.158c0-0.398 0.093-0.728 0.28-0.992 0.191-0.268 0.438-0.467 0.743-0.597 0.308-0.134 0.639-0.201 0.992-0.201 0.272 0 0.503 0.021 0.694 0.063s0.331 0.078 0.42 0.109l-0.317 1.009c-0.061-0.019-0.14-0.040-0.237-0.063-0.093-0.023-0.211-0.034-0.353-0.034-0.321 0-0.552 0.076-0.694 0.229-0.142 0.149-0.213 0.367-0.213 0.654v6.98h-1.315z"></path>
<path fill="#fafafa" style="fill: var(--color2, #fafafa)" d="M10.791 18.947c-0.644 0-1.202-0.134-1.674-0.403s-0.835-0.648-1.090-1.136c-0.252-0.492-0.377-1.066-0.377-1.721 0-0.651 0.124-1.225 0.371-1.721 0.252-0.496 0.603-0.882 1.055-1.159 0.456-0.28 0.99-0.42 1.603-0.42 0.373 0 0.735 0.059 1.085 0.176s0.664 0.303 0.943 0.557c0.279 0.254 0.499 0.583 0.66 0.988 0.165 0.405 0.248 0.894 0.248 1.466v0.443h-5.24v-0.926h4.58l-0.595 0.307c0-0.39-0.063-0.735-0.189-1.034s-0.314-0.532-0.566-0.699c-0.248-0.17-0.556-0.256-0.925-0.256s-0.686 0.085-0.949 0.256c-0.259 0.17-0.458 0.396-0.595 0.676s-0.206 0.587-0.206 0.92v0.631c0 0.436 0.079 0.805 0.236 1.108s0.375 0.534 0.654 0.693c0.283 0.159 0.611 0.239 0.984 0.239 0.244 0 0.464-0.034 0.66-0.102 0.2-0.068 0.373-0.17 0.519-0.307s0.255-0.305 0.33-0.506l1.214 0.222c-0.098 0.341-0.271 0.64-0.519 0.898s-0.56 0.458-0.937 0.602c-0.373 0.14-0.8 0.21-1.279 0.21z"></path>
<path fill="#fafafa" style="fill: var(--color2, #fafafa)" d="M5.686 12.483h1.21v6.862c0.004 0.43-0.071 0.793-0.224 1.089s-0.377 0.519-0.672 0.668c-0.295 0.154-0.657 0.23-1.087 0.23h-0.246v-1.077h0.196c0.291 0 0.5-0.079 0.627-0.236s0.192-0.384 0.196-0.68v-6.856zM6.285 11.492c-0.213 0-0.394-0.073-0.543-0.219s-0.224-0.321-0.224-0.524c0-0.207 0.075-0.384 0.224-0.53s0.33-0.219 0.543-0.219c0.209 0 0.388 0.073 0.538 0.219 0.153 0.146 0.23 0.323 0.23 0.53 0 0.204-0.077 0.378-0.23 0.524-0.149 0.146-0.329 0.219-0.538 0.219z"></path>
</symbol>
<symbol id="favicon-2" viewBox="0 0 32 32">
<path fill="#1c1d20" style="fill: var(--color1, #1c1d20)" d="M6.667 0h18.667c3.682 0 6.667 2.985 6.667 6.667v18.667c0 3.682-2.985 6.667-6.667 6.667h-18.667c-3.682 0-6.667-2.985-6.667-6.667v-18.667c0-3.682 2.985-6.667 6.667-6.667z"></path>
<path fill="#fafafa" style="fill: var(--color2, #fafafa)" d="M12.432 20.797c-0.551 0-1.046-0.098-1.484-0.293-0.438-0.2-0.786-0.49-1.042-0.872s-0.384-0.846-0.384-1.393v-0.189h1.452v0.189c0 0.265 0.061 0.497 0.182 0.697 0.126 0.2 0.297 0.354 0.514 0.462 0.221 0.104 0.475 0.156 0.762 0.156 0.308 0 0.571-0.065 0.788-0.195s0.382-0.321 0.495-0.573c0.113-0.256 0.169-0.569 0.169-0.937v-6.882h1.452v6.882c0 0.621-0.119 1.152-0.358 1.595-0.234 0.438-0.569 0.775-1.003 1.009-0.434 0.23-0.948 0.345-1.543 0.345zM18.533 16.422l0.091-1.999-1.68 1.087-0.521-0.898 1.784-0.911-1.784-0.911 0.521-0.911 1.68 1.087-0.091-1.999h1.029l-0.091 1.999 1.68-1.087 0.521 0.911-1.784 0.911 1.784 0.911-0.521 0.898-1.68-1.087 0.091 1.999h-1.029z"></path>
</symbol>
<symbol id="services-0" viewBox="0 0 32 32">
<path fill="#ed3b44" style="fill: var(--color3, #ed3b44)" d="M6.667 0h18.667c3.682 0 6.667 2.985 6.667 6.667v18.667c0 3.682-2.985 6.667-6.667 6.667h-18.667c-3.682 0-6.667-2.985-6.667-6.667v-18.667c0-3.682 2.985-6.667 6.667-6.667z"></path>
<path fill="none" stroke="#fafafa" style="stroke: var(--color2, #fafafa)" stroke-linejoin="round" stroke-linecap="round" stroke-miterlimit="4" stroke-width="1.3333" d="M21.333 22c0-0.93 0-1.396-0.115-1.774-0.259-0.852-0.926-1.519-1.778-1.778-0.379-0.115-0.844-0.115-1.774-0.115h-3.333c-0.93 0-1.396 0-1.774 0.115-0.852 0.259-1.519 0.926-1.778 1.778-0.115 0.379-0.115 0.844-0.115 1.774"></path>
<path fill="none" stroke="#fafafa" style="stroke: var(--color2, #fafafa)" stroke-linejoin="round" stroke-linecap="round" stroke-miterlimit="4" stroke-width="1.3333" d="M16 16c1.657 0 3-1.343 3-3s-1.343-3-3-3c-1.657 0-3 1.343-3 3s1.343 3 3 3z"></path>
</symbol>
<symbol id="services-1" viewBox="0 0 32 32">
<path fill="#ed3b44" style="fill: var(--color3, #ed3b44)" d="M6.667 0h18.667c3.682 0 6.667 2.985 6.667 6.667v18.667c0 3.682-2.985 6.667-6.667 6.667h-18.667c-3.682 0-6.667-2.985-6.667-6.667v-18.667c0-3.682 2.985-6.667 6.667-6.667z"></path>
<path fill="none" stroke="#fafafa" style="stroke: var(--color2, #fafafa)" stroke-linejoin="round" stroke-linecap="round" stroke-miterlimit="4" stroke-width="1.3333" d="M12.063 15.486c-0.041-0.267-0.063-0.541-0.063-0.819 0-2.946 2.403-5.333 5.368-5.333s5.368 2.388 5.368 5.333c0 0.665-0.123 1.302-0.347 1.89-0.047 0.122-0.070 0.183-0.080 0.231s-0.015 0.080-0.016 0.129c-0.001 0.049 0.005 0.102 0.019 0.21l0.268 2.18c0.029 0.236 0.044 0.354 0.004 0.44-0.034 0.075-0.095 0.135-0.171 0.168-0.087 0.037-0.204 0.020-0.44-0.014l-2.123-0.311c-0.111-0.016-0.166-0.024-0.217-0.024s-0.084 0.004-0.133 0.014c-0.049 0.010-0.113 0.034-0.239 0.081-0.589 0.221-1.227 0.341-1.894 0.341-0.279 0-0.553-0.021-0.82-0.062M13.088 22.667c1.977 0 3.579-1.642 3.579-3.667s-1.602-3.667-3.579-3.667c-1.977 0-3.579 1.642-3.579 3.667 0 0.407 0.065 0.799 0.184 1.164 0.051 0.155 0.076 0.232 0.084 0.285 0.009 0.055 0.010 0.086 0.007 0.142-0.003 0.053-0.016 0.114-0.043 0.234l-0.408 1.841 1.997-0.273c0.109-0.015 0.163-0.022 0.211-0.022 0.050 0 0.077 0.003 0.126 0.013 0.047 0.009 0.116 0.034 0.255 0.083 0.366 0.129 0.758 0.199 1.166 0.199z"></path>
</symbol>
<symbol id="services-2" viewBox="0 0 32 32">
<path fill="#ed3b44" style="fill: var(--color3, #ed3b44)" d="M6.667 0h18.667c3.682 0 6.667 2.985 6.667 6.667v18.667c0 3.682-2.985 6.667-6.667 6.667h-18.667c-3.682 0-6.667-2.985-6.667-6.667v-18.667c0-3.682 2.985-6.667 6.667-6.667z"></path>
<path fill="none" stroke="#fafafa" style="stroke: var(--color2, #fafafa)" stroke-linejoin="round" stroke-linecap="round" stroke-miterlimit="4" stroke-width="1.3333" d="M16.519 18l-2.519-2.519"></path>
<path fill="none" stroke="#fafafa" style="stroke: var(--color2, #fafafa)" stroke-linejoin="round" stroke-linecap="round" stroke-miterlimit="4" stroke-width="1.3333" d="M9.333 22.667c1.333 0 3.072 0.228 3.983-0.683s0.911-2.389 0-3.3c-0.911-0.911-2.389-0.911-3.3 0s0 2.65-0.683 3.983z"></path>
<path fill="none" stroke="#fafafa" style="stroke: var(--color2, #fafafa)" stroke-linejoin="round" stroke-linecap="round" stroke-miterlimit="4" stroke-width="1.3333" d="M13.333 18.667c-0.328-0.328-0.491-0.491-0.584-0.663-0.222-0.411-0.213-0.909 0.025-1.311 0.099-0.168 0.269-0.325 0.609-0.64l6.579-6.091c0.579-0.536 1.479-0.519 2.038 0.039s0.576 1.458 0.039 2.038l-6.091 6.579c-0.315 0.34-0.472 0.51-0.64 0.609-0.403 0.238-0.9 0.247-1.311 0.025-0.172-0.093-0.335-0.256-0.663-0.584z"></path>
</symbol>
<symbol id="services-3" viewBox="0 0 32 32">
<path fill="#ed3b44" style="fill: var(--color3, #ed3b44)" d="M6.667 0h18.667c3.682 0 6.667 2.985 6.667 6.667v18.667c0 3.682-2.985 6.667-6.667 6.667h-18.667c-3.682 0-6.667-2.985-6.667-6.667v-18.667c0-3.682 2.985-6.667 6.667-6.667z"></path>
<path fill="none" stroke-linejoin="round" stroke-linecap="round" stroke-miterlimit="4" stroke-width="1.3333" stroke="#fafafa" style="stroke: var(--color2, #fafafa)" d="M20.108 9.333h-8.217c-0.308 0-0.558 0.25-0.558 0.558 0 1.777 0.706 3.481 1.962 4.737l0.813 0.813c0.081 0.081 0.121 0.121 0.15 0.16 0.176 0.236 0.176 0.561 0 0.797-0.029 0.039-0.069 0.079-0.15 0.16l-0.813 0.813c-1.256 1.256-1.962 2.96-1.962 4.737 0 0.308 0.25 0.558 0.558 0.558h8.217c0.308 0 0.558-0.25 0.558-0.558 0-1.777-0.706-3.481-1.962-4.737l-0.813-0.813c-0.081-0.081-0.121-0.121-0.15-0.16-0.176-0.236-0.176-0.561 0-0.797 0.029-0.039 0.069-0.079 0.15-0.16l0.813-0.813c1.256-1.256 1.962-2.96 1.962-4.737 0-0.308-0.25-0.558-0.558-0.558z"></path>
</symbol>
<symbol id="close" viewBox="0 0 32 32">
<path stroke-linejoin="round" stroke-linecap="round" stroke-miterlimit="4" stroke-width="2.6667" d="M24 8l-16 16"></path>
<path stroke-linejoin="round" stroke-linecap="round" stroke-miterlimit="4" stroke-width="2.6667" d="M8 8l16 16"></path>
</symbol>
</defs>
</svg>
